<?xml version="1.0" encoding="utf-8"?>
<!-- Generator: Adobe Illustrator 18.1.1, SVG Export Plug-In . SVG Version: 6.00 Build 0)  -->
<!DOCTYPE svg PUBLIC "-//W3C//DTD SVG 1.1//EN" "http://www.w3.org/Graphics/SVG/1.1/DTD/svg11.dtd">
<svg version="1.1" id="Layer_1" xmlns="http://www.w3.org/2000/svg" xmlns:xlink="http://www.w3.org/1999/xlink" x="0px" y="0px"
	 viewBox="0 0 500 500" enable-background="new 0 0 500 500" xml:space="preserve">
<g>
	<path fill="#261C1A" d="M113.8,205.9c3.3-3.6,11.5-6.8,22-10c-5.3,9.8-8.8,21.1-8.8,33.8c0,1.6,0,3.2,0.1,4.9
		c-7.3,2.7-18,8.3-22.2,11.5c-18.5,13.8,2.2,17.4,14.7,11.8c2.6-1.1,6.6-1.2,11.3-0.6c3.4,11.8,9.3,23.1,18.2,29.8
		c-1.3,1.1-2.7,2.2-3.9,3.4c-15,13.8-39.8,60.1-25.7,70.9c17.8,13.7,22-6.1,33.5-32.5c10.2-23.5,25.4-35.4,35.6-41.3
		c41.2-18.4,55.9-8.5,68.4,3.7c-0.7,8.5,1.2,19.5,1.6,26.8c0.6,10,11.7,1.4,20.2-7.4c4.3,2.9,8.7,5.3,13.4,7
		c-2.7,11.6-2.4,24.4,6,20.3c13.1-6.2,25.2-17.2,36.8-26.6c0.2-0.2,0.3-0.4,0.3-0.7c13.9-12.3,28.1-37.1,29.9-63.8
		c7.8,1.2,14.4,2.8,17.4,5.6c10,9.4,30.8,12.9,17.8-6.3c-3.9-5.7-18.6-13.5-23.5-15.4c-4.6-1.7-8.9-3.2-12.9-4.4
		c-0.7-3.4-1.5-6.8-2.7-10.2c-3.7-10.5-16.3-22.8-30.4-33.1c-1.6-8.4-13.1-41.1-17.1-46.2c-14.2-18.3-17.4,2.6-11.5,15
		c1.4,3,1.3,8.2,0.5,14.2c-0.5-0.3-1.1-0.5-1.7-0.8c-29.2-13-84.3-19.9-110.4-14.3c-13.3,1.6-31.4,7.4-54.5,18.6
		c-7.2,3.5-26.6,18.1-33.4,25.4C84.2,215.6,100.2,220.6,113.8,205.9z"/>
	<g>
		<path fill="#FFFFFF" d="M312.2,291.1c-2.4-3.2,0.1-7.4-2.3-5.9c-1.2,0.8-1.8,4.1-0.3,6.7c1.9,3.5,5.1,4.6,6.4,4.3
			C319.1,295.3,314,293.6,312.2,291.1z"/>
		<path fill="#FFFFFF" d="M298.8,285c4-0.4,5.4-5.1,5.9-2.3c0.3,1.4-1.8,4.1-4.7,4.8c-3.9,1-6.9-0.6-7.5-1.8
			C290.9,282.8,295.7,285.3,298.8,285z"/>
		<path fill="#FFFFFF" d="M308.3,267.6c-1.6-3.4-6.3-3.2-3.9-4.6c1.2-0.7,4.3,0.4,5.8,2.7c2.1,3.2,1.6,6.4,0.7,7.3
			C308.8,275.4,309.5,270.3,308.3,267.6z"/>
		<path fill="#FFFFFF" d="M317.9,271.8c3.8-0.6,6.2,3.3,6,0.6c-0.1-1.4-2.7-3.3-5.5-3.2c-3.9,0.1-6.1,2.3-6.4,3.5
			C311.3,275.8,315,272.3,317.9,271.8z"/>
		<path fill="#FFFFFF" d="M313.3,278.1c2.2,0.8,2.6-5.4-0.6-6.9c-3.2-1.6-7,1.8-6.9,3.3C305.9,275.8,309.9,276.9,313.3,278.1z"/>
	</g>
</g>
</svg>
