<?xml version="1.0" encoding="utf-8"?>
<!-- Generator: Adobe Illustrator 18.1.1, SVG Export Plug-In . SVG Version: 6.00 Build 0)  -->
<!DOCTYPE svg PUBLIC "-//W3C//DTD SVG 1.1//EN" "http://www.w3.org/Graphics/SVG/1.1/DTD/svg11.dtd">
<svg version="1.1" id="Layer_1" xmlns="http://www.w3.org/2000/svg" xmlns:xlink="http://www.w3.org/1999/xlink" x="0px" y="0px"
	 viewBox="0 0 500 500" enable-background="new 0 0 500 500" xml:space="preserve">
<path fill="#D8CACA" d="M226.1,436.7c257.6,0.8,192.7,2.5,197.4-200.8C428.2,32.7,467.1,70.8,226.8,61S46,21.2,45.9,273.1
	C45.8,455.7-1.8,436,226.1,436.7z"/>
<g>
	<path fill="#E56633" d="M378.7,534.1c-8.3-4.5-48.2-13.4-61.3-17c-23.5-6.4,2.4-38.2-6.4-83.5c-2.4-23.2-6.9-50.2-6.9-79.8
		c12-6.3,26.3-16.1,42.7-29.5c6.7-5.5,21.3-3.6,30.6-10.1c32.8-22.9-15.4-24.4-34.7-22.2c-7.4,0.8-20.2,5.6-33.4,12.4
		c3.1-14.4,7.9-29.2,15-44.3c2.5-5.3,4.2-10.5,5.3-15.6c6-13.6,2.8-39.3,2.8-54.7c0-11.9-9.9-8.5-21-0.6
		c-10.9-10.4-25.5-18.1-41.3-22c2.5-16.5-0.1-29.8-13.1-24.6c-19,7.6-37.3,20.1-55,32.8c-2.4,1.4-4.8,2.9-7.1,4.5
		c-4.6,3.3-9,6.8-13.4,10.3c-0.1,0.1-0.3,0.2-0.4,0.3c-0.1,0-0.1,0.1-0.1,0.1c-20.6,16.5-39.6,34.9-56.9,54.5
		c-6.9-8.8-13.7-15.8-18.7-19.1c-16.2-10.7-59.7-31.4-41,4c5.3,10.1,19.2,15,22.6,22.9c3.8,8.8,7.6,16.6,11.4,23.7
		c-16.2,21.6-30.4,44-42.5,66.3C25,377.2-6,426.7-11.9,460.9c-14.9-0.7-35.1-1-51.8,1.4c-33.2,4.8-109.8,44.5-100.8,72.3
		c11.4,35.2,35.5,12.2,75.6-13c35.7-22.5,67.5-24.5,86.8-22.9C8.4,512.7,21,524,8,538.2c-9.2,10-50.6,10.5-55.3,18.7
		c-12.8,22.7,5.9,24.9,22,23.2c48.5-4.9,73.9-23.2,140-25.5c0,0,0,0,0,0c39.6,4.8,84.1,2.5,121.7-11.5c46,0,79.1,4.2,123.5,14.8
		C375.9,561.6,401.6,546.4,378.7,534.1z"/>
	<path fill="#261C1A" d="M254.9,205.4c3.4,5.6-1.2,12.1,3,9.9c2.1-1.1,3.5-6.5,1.5-11c-2.7-6.1-7.7-8.3-9.9-7.9
		C244.2,197.5,252.3,201.1,254.9,205.4z"/>
	<path fill="#261C1A" d="M276,217.4c-6.6,0.1-9.5,7.6-9.9,2.9c-0.2-2.4,3.6-6.5,8.4-7.2c6.6-1,11.1,2,12,4
		C288.5,222.1,281.1,217.3,276,217.4z"/>
	<path fill="#261C1A" d="M253.8,237.4c0.6,4.3,5.8,5.7,2.7,6.4c-1.5,0.3-4.6-1.9-5.4-5c-1.2-4.3,0.4-7.5,1.7-8.3
		C255.9,228.8,253.3,234.1,253.8,237.4z"/>
	<path fill="#261C1A" d="M244.7,229.5c-4.3-0.6-5.7-5.8-6.4-2.7c-0.3,1.5,1.9,4.6,5,5.4c4.3,1.2,7.5-0.4,8.3-1.7
		C253.3,227.4,248,230,244.7,229.5z"/>
	<path fill="#261C1A" d="M251.4,222c-2.7-1.5-5.1,7.1-1.4,9.8c3.7,2.7,9.7-1.3,10.1-3.5C260.3,226.4,255.4,224.3,251.4,222z"/>
	<path fill="#261C1A" d="M-117.4,486.8c-0.5-0.6-1.4-1.6-2.6-2.9c-6.2,3.5-12.2,7.2-17.7,11.1c0.1,0,0.1,0,0.2,0.1
		C-120.9,502.3-94.3,516.1-117.4,486.8z"/>
	<path fill="#261C1A" d="M-87.7,469.6c-0.1-0.1-0.2-0.3-0.4-0.5c-6.9,2.6-14.2,5.7-21.4,9.3c0,0,0.1,0,0.1,0.1
		C-91.5,486.1-62.9,501-87.7,469.6z"/>
	<path fill="#261C1A" d="M-48.5,460.9c-5.2,0.3-10.4,0.8-15.2,1.5c-2.6,0.4-5.4,1-8.5,1.7C-56.1,474.2-31.7,492.1-48.5,460.9z"/>
	<path fill="#261C1A" d="M103.8,290.6c-1.5-1-5.5-3.1-11-5.9C88,291.3,83.4,298,79,304.8c2.8,0.5,5.2,0.9,7.1,1
		C105.4,307.5,137.1,312.7,103.8,290.6z"/>
	<path fill="#261C1A" d="M172.7,197.6c-3.4,2.9-6.8,5.9-10.2,8.9C174.4,209.5,187.3,212.4,172.7,197.6z"/>
	<path fill="#261C1A" d="M190.6,183.3c-2.8,2.1-5.7,4.3-8.4,6.5C190.8,194,197.9,196,190.6,183.3z"/>
	<path fill="#261C1A" d="M212.1,170.3c-0.2-0.3-0.5-0.7-0.9-1.3c-3.1,2.1-6.1,4.3-9.1,6.5c-1,0.6-2,1.2-3,1.8
		C210.8,183.3,226,191.4,212.1,170.3z"/>
	<path fill="#261C1A" d="M331.8,237.7c0.8-3.6,1.2-7.6,1.4-11.8C323,229.9,314.5,234.4,331.8,237.7z"/>
	<path fill="#261C1A" d="M324.9,259c1.9-4.2,3.3-8.3,4.3-12.4C317.1,248.4,304.6,250.7,324.9,259z"/>
	<path fill="#261C1A" d="M316.4,279.7c1.4-4,2.9-8,4.6-12C309.3,269.4,297.5,271.8,316.4,279.7z"/>
	<path fill="#261C1A" d="M70.7,330.6c-0.9-0.7-2.8-2-5.5-3.7c-3.2,5.4-6.3,10.8-9.2,16.3c-0.5,0.5-1,1.1-1.5,1.6
		C73.7,348.3,100.6,354.2,70.7,330.6z"/>
	<path fill="#261C1A" d="M48.2,367.6c-1.3-0.9-4.4-2.6-8.8-4.8c-4.9,6.2-9.6,12.7-14.1,19.3c2,0.3,3.7,0.6,5.1,0.7
		C49.8,384.5,81.6,389.7,48.2,367.6z"/>
	<path fill="#261C1A" d="M304.1,448.6c1.4,0,4.5-0.3,8.7-0.9c-0.2-4.5-0.8-9.2-1.7-14.1c-0.3-2.5-0.6-5.1-0.9-7.6c0,0,0,0,0,0
		C293.2,435.5,264.1,449.2,304.1,448.6z"/>
	<path fill="#261C1A" d="M307.1,410.5c0.3,0,0.8,0,1.3-0.1c-0.7-6.1-1.4-12.3-2.1-18.7C289.9,400.7,272.1,411.1,307.1,410.5z"/>
	<path fill="#261C1A" d="M305.1,379.6c0,0,0.1,0,0.1,0c-0.5-6.1-0.8-12.4-0.9-18.8C287.9,369.8,270.1,380.2,305.1,379.6z"/>
	<path fill="#261C1A" d="M297,185.2c0.7-0.5,2.3-2,4.3-4c-2.4-1.7-4.9-3.2-7.6-4.7c-0.8,1.3-1.4,2.3-1.7,3.1
		C289.4,185.6,284.1,195.4,297,185.2z"/>
	<path fill="#261C1A" d="M283.8,179.5c0.5-0.7,1.8-3.1,3.4-6.3c-3.2-1.4-6.5-2.7-9.8-3.8c-0.5,2.3-0.8,4.3-0.8,5.5
		C276.6,181.1,275.6,191.2,283.8,179.5z"/>
</g>
</svg>
