<?xml version="1.0" encoding="utf-8"?>
<!-- Generator: Adobe Illustrator 18.1.1, SVG Export Plug-In . SVG Version: 6.00 Build 0)  -->
<!DOCTYPE svg PUBLIC "-//W3C//DTD SVG 1.1//EN" "http://www.w3.org/Graphics/SVG/1.1/DTD/svg11.dtd">
<svg version="1.1" id="Layer_1" xmlns="http://www.w3.org/2000/svg" xmlns:xlink="http://www.w3.org/1999/xlink" x="0px" y="0px"
	 viewBox="0 0 500 500" enable-background="new 0 0 500 500" xml:space="preserve">
<path fill="#E56633" d="M1093.4,474.5c-18.9-12.6-34.5-46.8-49.2-89.6c35.1-50.1,54.4-122.5,55.3-141.3
	c1.6-34.9,10.6-151.3-25-341.9c-18.4-98.6-131.9-313.3-195.3-274.7c-80.2,48.8-20.1,112.3,49.3,223c28.2,45,46.2,89.3,57.5,129.8
	c-14.6-13.8-29.5-26-43.8-36.5c-100.8-74-199.7-156.3-369.1-140.8c-63.3,5.8-197.3,89-307.8,178.4c-15.5-13.4-43-32.4-54.5-34.9
	c-17.9-3.9-26.4,70.6-28.6,107.9c-15.2,14.7-29.1,29-41.1,42.7c-15.6-12.6-46.6-36.6-57.4-36.8c-19.6-0.4-12.5,104.1,5.8,170.7
	C113.2,317,131.5,416.4,204,473.6c33.6,26.5,70.4,43,108.4,51.5c2.3,3.1,4.6,6.1,7,9.3c14.4,18.6,148,120.6,174.7,129.6
	c89.3,30.3,44.1-54.2-5.3-84.6c-12.8-7.9-26.7-29-41.1-55.3c16.4-3.6,32.5-8.3,48.2-14c32.5,59.2,92.7,155.9,112.3,172.6
	c88.4,75.2,82.7-30.4,41.5-85.3c-21.2-28.3-18.1-109-20.5-180.4c41.7-35.4,90.4-65.4,162.1-54.2c0.5,2.7,0.9,5.3,1.3,8
	c5.2,29.5,44,118.6,67.9,153.2c67,97.4,114.8,53.7,66.7-16.4c-12.2-17.8-14.4-52.5-12.6-94.5c4,2.4,7.8,4.7,11.9,7.3
	c5.9,3.8,11.6,6.6,17.2,8.8c28,30.3,69.4,68.8,94,85.2C1136.1,580,1164.2,521.7,1093.4,474.5z"/>
<g>
	<path fill="#261C1A" d="M190,271.8c19.7-3.3,32.8,17.4,31.4,3c-0.7-7.2-14.4-17.3-29.2-16.9c-20.3,0.5-32.3,12.2-33.7,18.8
		C155.2,292.9,174.7,274.3,190,271.8z"/>
	<path fill="#261C1A" d="M248,225.9c-7.1,18.7,10.5,35.6-3.3,31.4c-6.9-2.1-14.1-17.6-10.7-32c4.6-19.7,18.4-29.2,25.1-29.2
		C275.7,196,253.6,211.5,248,225.9z"/>
	<path fill="#261C1A" d="M270.6,303.3c13.8-0.8,18.5-21.2,20.3-8.4c0.9,6.4-6.2,17.7-16.2,20.1c-13.6,3.3-23.9-4.6-26.1-10.1
		C243.3,291.3,259.9,303.9,270.6,303.3z"/>
	<path fill="#261C1A" d="M247.6,319.9c-3,11-20.6,11.2-10.4,15c5.1,1.9,15.7-1.9,19.3-9.5c5-10.4,0.2-20.1-3.9-22.9
		C242.5,295.7,250,311.4,247.6,319.9z"/>
	<path fill="#261C1A" d="M225.3,294.8c-7.3,5.8,14.1,22.7,26,15.3c11.9-7.4,7.4-29.1,1.8-32.5C248.1,274.5,236.4,285.9,225.3,294.8z
		"/>
</g>
<path fill="#261C1A" d="M402.9,244.2c14.1-5.8,87.1-45.8,75.3-56.1c-10.8-9.5-44.7,1.9-65.8,18C391.7,222,353.2,264.4,402.9,244.2z"
	/>
<path fill="#261C1A" d="M382.5,201.2c14.1-5.8,97-63.7,71.5-66.7c-12.3-1.4-56.3,19.7-73.7,36.5
	C361.6,189.1,332.8,221.4,382.5,201.2z"/>
<path fill="#261C1A" d="M358.7,156.8c14.1-5.7,81.5-43.8,71.5-61.7c-8-14.4-54.3,9-73.7,31.5C339.5,146.4,309,177,358.7,156.8z"/>
<path fill="#261C1A" d="M211.5,440.2c-3.4,1.6-13.4,7.7-26.4,16.3c5.8,6,12.1,11.7,18.8,17c3.3,2.6,6.6,5,9.9,7.4
	c1.9-2.3,3.6-4.4,4.8-6.3C234.6,451.7,263.7,415.9,211.5,440.2z"/>
<path fill="#261C1A" d="M162.8,402c-2.3,0.5-7.3,2.1-14.2,4.5c5.3,9.5,11,18.6,17.4,27.3C186.7,415.1,215.9,390.5,162.8,402z"/>
<path fill="#261C1A" d="M125.9,356.2c3,8,6.1,15.9,9.5,23.7C155,367.7,169,355.6,125.9,356.2z"/>
<path fill="#261C1A" d="M733.5-127.7c1-6.3,1.2-26.5,0-53c-26.4-8.6-54.7-14.7-85.5-17.4c6.7,25.7,14.5,47.2,21.2,58.3
	C690.7-103.4,719.7-40.7,733.5-127.7z"/>
<path fill="#261C1A" d="M541.5-107.6c31.7,27.9,78.6,78.6,64.9-8.4c-1.4-8.8-12.6-42.9-28.7-81.9c-1.5,0.1-3,0.2-4.6,0.3
	c-20.1,1.8-47.2,11.5-78.5,26.6C511.7-142,529.8-117.9,541.5-107.6z"/>
<path fill="#261C1A" d="M486.2-66.5c-4.4-7.9-27.5-36.9-57-68.7c-24.3,14.7-49.7,31.3-75.1,49.1c28.8,24.6,58,43.8,74.1,50
	C467.6-21,529.2,10.4,486.2-66.5z"/>
<path fill="#261C1A" d="M179.1,80.9c0-2.4-0.9-11.1-2.5-21.7c-4.7,4.6-9.2,9.1-13.5,13.6c1.3,4,2.6,7.1,3.6,9
	C171.9,91.3,179.4,108.3,179.1,80.9z"/>
<path fill="#261C1A" d="M156.1,107.1c8.1,6.2,20.5,17.8,13.4-5c-0.8-2.5-5.6-12.9-11.7-23.9c-4.8,5.1-9.4,10.1-13.8,15
	C148.7,99.7,153.3,105,156.1,107.1z"/>
<path d="M1013.7-140.5c12.2-14.8,34.6-37.8-5.6-22.1c-6.1,2.4-38.4,19.8-64.9,37.8c5.1,9.2,9.8,18.4,14.1,27.5
	C981.4-111.3,1006.2-131.4,1013.7-140.5z"/>
<path d="M970.7-209.8c-6.1,1.1-37.5,10.6-66.4,22.1c5.4,8.3,11,16.9,16.7,25.8c21.5-8.7,41.6-19.4,49.2-25.3
	C986.1-199.3,1014.1-217.6,970.7-209.8z"/>
<path d="M925.9-261.6c-5.7,0.1-33.8,3.6-62.3,9.3c4.8,8.4,10.1,17.2,16,26.4c17.8-4.6,33.5-9.9,40.6-13.6
	C938.5-248.8,970.2-262.2,925.9-261.6z"/>
</svg>
