<?xml version="1.0" encoding="utf-8"?>
<!-- Generator: Adobe Illustrator 18.1.1, SVG Export Plug-In . SVG Version: 6.00 Build 0)  -->
<!DOCTYPE svg PUBLIC "-//W3C//DTD SVG 1.1//EN" "http://www.w3.org/Graphics/SVG/1.1/DTD/svg11.dtd">
<svg version="1.1" id="Layer_1" xmlns="http://www.w3.org/2000/svg" xmlns:xlink="http://www.w3.org/1999/xlink" x="0px" y="0px"
	 viewBox="0 0 500 500" enable-background="new 0 0 500 500" xml:space="preserve">
<path fill="#D8CACA" d="M168.7,471.6c220.1,42,164.8,30.9,199.1-142.6s94-109.2-110.5-153.4s-181-87-218.7,128.9
	C11.4,461-1.7,439.1,168.7,471.6z"/>
<path fill="#B2A3A3" d="M91.6,293.5c-24.8-20-27.7-7.9-4,4.2S112,310,91.6,293.5z"/>
<path fill="#B2A3A3" d="M85.9,304.3c-21.1-6.7-33.2-1.9-3.6,7.5S113.3,312.9,85.9,304.3z"/>
<path fill="#B2A3A3" d="M95.1,314.2c-21.2,5.4-24.1,19.2,2.8,7.5S115.6,308.9,95.1,314.2z"/>
<path fill="#B2A3A3" d="M201.8,384.8c-21.1-6.7-33.2-1.9-3.6,7.5S229.2,393.4,201.8,384.8z"/>
<g>
	<path fill="#E56633" d="M541.6,380.1c4.8-21.1,0.1-47.9-8.1-63.8c2.4-9.6,3.2-19.3,2.1-28.6c-6.6-55.9-31-109.7-96.6-149.1
		c-23.2-13.9-100.2-16.1-161.3-14c-0.4-5,1.8-15.6-0.5-19.9c-5.7-10.8-25.1,5.4-35.2,19.9c-8.1,0.9-15.9,2-23.2,3.2
		c3-13.7,10.3-26.6,3-28.7c-11.6-3.4-40,29.6-57.5,56.6c-24,37-41.2,94.7,0.7,117.4c-16.6,4.4-61.8,13.8-66.3,16.4
		c-38.9,23.4,6.3,30.4,31,22.2c34.1-11.4,66.9-2.5,92,3.1c6.1,3.6,12.1,6.9,18,9.9C220.8,341,199,361,195.1,367.5
		c-21.7,36.4,19.7,24.5,37.7,5.6c9.9-10.4,46.2-17.3,75.5-25.5c0,0,0.1,0,0.1,0c31.2,6.1,47.5,2.2,71.9,10.7
		c-9.2,2.9-18.6,5.3-26,5.6c-27.1,0.9-34.2,12.8-1.2,24.3c23.5,8.2,121.5,15,151.6-17.8c4.5-4.8,6.6-10,10.5-15.5
		c-0.2,4-0.7,7.6-1.7,10.2c-11.4,28-45.4,38.9-101.5,39.5c-29.3,0.3-87.3-4.8-76.3,33.9c8.7,30.6,97.4,25.8,131.7,13.2
		C497.4,440.7,531.2,425.8,541.6,380.1z"/>
	<g>
		<path fill="#261C1A" d="M178,215.1c5.6,4.8,2.9,13.4,6.6,9.6c1.9-1.9,1.5-8.2-2.2-12.2c-5-5.6-11.1-6.2-13.3-5
			C163.8,210.3,173.7,211.4,178,215.1z"/>
		<path fill="#261C1A" d="M204.7,220.6c-7,2.4-7.5,11.4-9.6,6.5c-1-2.4,1.6-8.1,6.5-10.6c6.6-3.4,12.6-1.7,14.2,0.1
			C219.6,221.3,210.1,218.7,204.7,220.6z"/>
		<path fill="#261C1A" d="M190.2,248c2.2,4.4,8.2,4.1,5.1,5.9c-1.5,0.9-5.5-0.4-7.5-3.4c-2.8-4.1-2.1-8.2-1-9.4
			C189.5,238,188.6,244.6,190.2,248z"/>
		<path fill="#261C1A" d="M180.6,245.7c-3.7,3.2-9.1,0.6-7,3.4c1.1,1.4,5.2,1.8,8.3-0.2c4.2-2.7,5.2-6.7,4.6-8.3
			C185.1,236.8,183.4,243.2,180.6,245.7z"/>
		<path fill="#261C1A" d="M182.3,232.4c-3.4-0.7-3.1,9.3,1.8,10.9c4.9,1.6,10-4.8,9.6-7.2C193.4,234,187.5,233.4,182.3,232.4z"/>
	</g>
	<path fill="#261C1A" d="M238.2,264.5c4.9,3.9,34.2,21.7,35.4,15.4c1.2-5.8-9.8-15.6-19.9-19.8C243.8,255.9,220.8,250.9,238.2,264.5
		z"/>
	<path fill="#261C1A" d="M249.3,248.4c4.9,3.9,42.6,21.6,38.5,11.9c-2-4.7-18.6-16.1-28.1-18.8C249.4,238.4,232,234.8,249.3,248.4z"
		/>
	<path fill="#261C1A" d="M260.3,230.8c4.9,3.9,32.3,20.1,36.7,12.9c3.5-5.8-14.3-17.6-26.3-19.9
		C260.1,221.8,242.9,217.2,260.3,230.8z"/>
	<path fill="#261C1A" d="M346.8,202.5c2.3,14.8,13.1,33.9,16.8-3.3c3.4-33.4-4.7-60-21.5-74.8c-12.1-0.3-24.4-0.4-36.5-0.2
		C318.9,135.7,340,158.2,346.8,202.5z"/>
	<path fill="#261C1A" d="M394.3,199.6c-0.4,15,8.4,36.1,20.8,0.4c10-28.6,3.8-53.3-10.5-71.1c-9.7-1.5-20.7-2.6-32.4-3.3
		C383.7,141.5,395.3,165.5,394.3,199.6z"/>
	<path fill="#261C1A" d="M448,206.6c-2,14.9,6,37.2,23.9,3.6c7.5-14,9.8-27.6,8.2-40.3c-11.4-11.2-25-21.7-41-31.3
		c-1.4-0.9-3.1-1.7-4.9-2.5C444,153.4,452,176.9,448,206.6z"/>
	<path fill="#261C1A" d="M230.7,139.8c1.1-1.2,6.5-8.3,10.9-15c-2.6,0.3-5.2,0.6-7.8,1c-2.8,4.4-5.1,8.7-5.9,10.7
		C226.4,140.8,223.1,148.2,230.7,139.8z"/>
	<path fill="#261C1A" d="M223.3,137.1c0.5-1,2.5-5.5,4.3-10.5c-2.4,0.3-4.8,0.7-7.1,1.1c-0.8,3-1.2,5.6-1.3,7
		C219.1,138.9,218.3,146.1,223.3,137.1z"/>
	<path fill="#261C1A" d="M141.6,231.7c-0.4-0.1-1-0.2-1.9-0.2c0.2,4.2,0.8,8.3,1.8,12.3C152.3,240,162.4,235.6,141.6,231.7z"/>
	<path fill="#261C1A" d="M146.2,209.8c-0.7-0.3-2.3-0.8-4.4-1.5c-1,4.6-1.6,9.2-2,13.6C152,220.6,167.8,219.2,146.2,209.8z"/>
	<path fill="#261C1A" d="M157.2,185.4c-0.9-0.7-3.3-2-6.6-3.7c-2,4.6-3.8,9.3-5.3,14.1c0.1,0,0.2,0,0.4,0
		C157.9,196.7,178,200,157.2,185.4z"/>
	<path fill="#261C1A" d="M482.1,424.6c0.2,2.2,1.8,9.9,4.3,19.6c5.4-2.5,10.8-5.3,16-8.5c-1.8-3.8-3.6-6.9-4.9-8.8
		C490.4,416.8,480,399.2,482.1,424.6z"/>
	<path fill="#261C1A" d="M447,432.3c-0.3,2.5-0.5,12.7,0,24.8c6.9-1.3,13.2-2.9,18.4-4.7c-1.2-6.3-2.7-11.6-3.9-14.5
		C456.8,426.6,450.6,407.2,447,432.3z"/>
	<path fill="#261C1A" d="M406.6,433.9c-0.9,2.6-3.4,14.2-5.5,27.7c6.5,0,13-0.3,19.4-0.8c0.2-7.9-0.1-14.7-0.8-18.5
		C417.3,430.2,415.1,409.9,406.6,433.9z"/>
</g>
</svg>
