<?xml version="1.0" encoding="utf-8"?>
<!-- Generator: Adobe Illustrator 18.1.1, SVG Export Plug-In . SVG Version: 6.00 Build 0)  -->
<!DOCTYPE svg PUBLIC "-//W3C//DTD SVG 1.1//EN" "http://www.w3.org/Graphics/SVG/1.1/DTD/svg11.dtd">
<svg version="1.1" id="Layer_1" xmlns="http://www.w3.org/2000/svg" xmlns:xlink="http://www.w3.org/1999/xlink" x="0px" y="0px"
	 viewBox="0 0 500 500" enable-background="new 0 0 500 500" xml:space="preserve">
<path fill="#D8CACA" d="M195.1,53.4C-76.4,30.8-7.8,34.6-28.6,235.1s-58.8,159.6,193.7,189.6c252.4,30,187.5,54.8,207.2-194.2
	C386.6,50,435.2,73.5,195.1,53.4z"/>
<g>
	<g>
		<path fill="#E56633" d="M221.8,465.9c8.1-12.3,30-94.3,31.5-111.6c11.6-2.7,25.4-6.8,39.8-12.6c31.5,11.2,66.1,21.9,75.6,33.7
			c19.7,24.4,68,42.9,45.7-2.9c-4.7-9.7-37.9-44.8-60.9-66.9c17.8-15.8,31.8-35.8,37.2-60.6c1.1-5,1.6-10.1,1.6-15.3
			c0.2-0.2,0.4-0.4,0.5-0.7c15.6-37.5,11.8-68.9,4.7-81.4c-5.1-9-23.9,4.1-30.4,21.7c-3.2-3.3-6.7-6.3-10.5-9.1
			c1.8-23.6-0.9-58.8-20.7-43.6c-9.7,7.4-19.3,16.9-25.9,26.5c-8-0.7-16.6-0.5-25.7,0.7c-74.8,10.3-117.3-47.9-138.2-81.4
			C99-13-13.9,11.1-39.3,16.8c-45.5,10.1-144.1,64.8-125.4,93.8c23.6,36.7,52.4,8.1,103-25.4C-52,78.8-42.3,73.5-32.9,69
			c-15.9,24-25.1,53.3-28.7,84c-4.4,38.2-9,93.4-21.4,108.7c-19.7,24.3-27.7,75.5,12.4,44.1c7.6-6,30.4-38.6,47.1-64.8
			c4.4,5.1,8.9,10.1,13.6,15c6.1,16.6,10.3,31,8.8,39.6C-6.4,326.4,11.6,375,31.3,328c1.9-4.5,3.9-16.9,5.6-32.1
			c39.4,25.8,103.3,49.9,151.6,58.9c6,30,12.5,60.3,7.6,73.3C185.1,457.4,193.8,508.5,221.8,465.9z"/>
		<g>
			<path fill="#261C1A" d="M368.9,225c-7.6,0.3-10.9,9-11.5,3.5c-0.3-2.7,4.1-7.5,9.6-8.5c7.6-1.3,13,2.1,14,4.5
				C383.4,230.3,374.8,224.8,368.9,225z"/>
			<path fill="#261C1A" d="M343.8,212.3c4.1,6.4-1.2,14.1,3.6,11.5c2.4-1.3,3.9-7.6,1.6-12.8c-3.2-7-9.1-9.5-11.6-9
				C331.2,203.2,340.6,207.3,343.8,212.3z"/>
			<path fill="#261C1A" d="M354.3,236.2c3.2,1.6-3.5,9.5-8.5,7.7c-5-1.9-5-10.3-3.1-12C344.2,230.4,349.4,233.8,354.3,236.2z"/>
		</g>
		<path fill="#261C1A" d="M185.5,165.9c1.7-4.1,7.2-22.2,12.7-43.9c-9.1-6.7-17.2-14.2-24.3-22.1c-3.7,20.6-5.7,40-5.4,49.2
			C169.2,170.9,168.1,207,185.5,165.9z"/>
		<path fill="#261C1A" d="M136.6,131.4c2.1-5,9.8-30.6,16.2-58.4c-2.5-3.7-4.7-7.2-6.8-10.5c-4.8-7.7-10.2-14.3-16.2-20
			c-6.8,27.8-10.7,59.6-10.2,72.2C120.4,136.4,119.3,172.5,136.6,131.4z"/>
		<path fill="#261C1A" d="M89.7,94.5c2.4-5.6,11.6-36.9,18.4-68.1c-8.7-4.9-17.9-8.5-27.4-11.2c-5.4,25.2-8.4,51.5-8,62.6
			C73.4,99.5,72.3,135.6,89.7,94.5z"/>
		<path fill="#261C1A" d="M305,160.9c-0.4-2.4-1.7-9-3.7-18c-3.9,0-7.9,0.1-12,0.5c0.9,2.7,1.8,5,2.5,6.9
			C299.6,170.2,311.7,204,305,160.9z"/>
		<path fill="#261C1A" d="M265.2,176.7c7.9,19.9,19.9,53.7,13.2,10.6c-0.7-4.2-4.3-21.4-9.2-42.2c-5,0.1-9.8-0.1-14.5-0.7
			C258.8,158.5,262.7,170.4,265.2,176.7z"/>
		<path fill="#261C1A" d="M246.5,188c-0.3-4.5-2.6-23.5-5.9-45.9c-5.3-1.3-10.3-2.9-15.1-4.8c3.2,16.9,6.6,31.7,8.8,39
			C240.3,196.8,249.4,231.5,246.5,188z"/>
		<path fill="#261C1A" d="M359.4,168.2c0.4-1.1,0.9-2.7,1.4-4.6c-1.2-1-2.5-2-3.8-3c-1.1,5.7-1.9,10.1-2,11.3
			C353.2,186.7,356.9,175,359.4,168.2z"/>
		<path fill="#261C1A" d="M364.8,173c0.4-1.1,0.9-2.6,1.4-4.5c-1.2-1.2-2.4-2.3-3.7-3.4c-1.1,5.8-1.9,10.4-2.1,11.7
			C358.6,191.4,362.3,179.8,364.8,173z"/>
		<path fill="#261C1A" d="M-111.1,47.4c-3.9,2.3-7.8,4.7-11.6,7.1c1.6,1.5,2.8,2.7,3.6,3.3C-87.8,84.8-99.9,65.1-111.1,47.4z"/>
		<path fill="#261C1A" d="M-85,33.6c-4.1,2-8.3,4-12.4,6.2c2,1.9,3.4,3.3,4.3,4C-61.8,70.8-73.7,51.3-85,33.6z"/>
		<path fill="#261C1A" d="M-54.4,21.1c-4.4,1.5-9,3.2-13.7,5.1c2.9,2.2,5,3.9,6.2,4.7C-27.3,54.8-41,37.4-54.4,21.1z"/>
	</g>
	<path fill="#261C1A" d="M338.5,246.3c9.2,5.3-12.4,24.6-15.8,20C319.3,261.6,330.5,241.6,338.5,246.3z"/>
</g>
</svg>
