<?xml version="1.0" encoding="utf-8"?>
<!-- Generator: Adobe Illustrator 18.1.1, SVG Export Plug-In . SVG Version: 6.00 Build 0)  -->
<!DOCTYPE svg PUBLIC "-//W3C//DTD SVG 1.1//EN" "http://www.w3.org/Graphics/SVG/1.1/DTD/svg11.dtd">
<svg version="1.1" id="Layer_1" xmlns="http://www.w3.org/2000/svg" xmlns:xlink="http://www.w3.org/1999/xlink" x="0px" y="0px"
	 viewBox="0 0 500 500" enable-background="new 0 0 500 500" xml:space="preserve">
<path fill="#E56633" d="M802.8,559.9c-18.9,2.3-95,34.2-120.9,43.6c-46.1,16.8-40.6-65.7-107.9-130.2C543,438,504,398.8,469.6,350
	c-13.7-25.5-31.7-56-49.1-87.5c-11.7-27.4-21.1-57.4-27-90.5c-2.1-11.7-5.4-22.2-9.5-31.8c-6-29.4-43-64.7-54.3-93.6
	c-15.9-40.9-31.1-2.2-40.2,23.9c-30.2-4.4-63.1-0.1-93.9,11.9c-15.2-30.1-35-49.1-50.3-25.3c-22.4,34.8-38.1,76.6-52.4,118.3
	c-2.3,5.1-4.5,10.3-6.3,15.7c-3.6,10.8-6.9,21.7-10.1,32.6c-0.1,0.3-0.2,0.7-0.3,1c0,0.1,0,0.3-0.1,0.4
	C61.5,276.2-36.2,412.3-35.5,447.8c-1.5,54.4-78.9,85-72.8,135.8c-11.3,92.2,151.7,248.4,181.9,311.7
	c-25.4,16.3-59.1,39.3-83.8,62.8c-49.2,46.7-129,201.5-81.7,236.8c59.8,44.7,72.8-21.3,109.4-109.7
	c32.6-78.8,82.6-119.2,116.3-139.1c33.6,10.8,67.6,14.8,62.7,53.3c-3.4,27.3-71.2,76.3-69.3,95.3c5.4,52.2,38.7,34.1,63.4,12.5
	c74.1-64.7,94.7-124.5,201-205.5c0,0,0,0,0,0c70.9-38.3,141.4-94.1,187.2-161.1c75.9-53.7,135.3-85.5,220.7-119.8
	C830.3,608.6,854.9,553.6,802.8,559.9z"/>
<path fill="#261C1A" d="M228.7,194.3c-9.4,0.5,3.6,17.6,9,17.8c5.5,0.2,15.7-12,13.8-16C249.8,192.7,238.1,193.8,228.7,194.3z"/>
<path fill="#261C1A" d="M70.5,246c-0.8,0-1.6,0-2.5,0c-3.6,7.8-8,16.4-12.9,25.6C83.4,270.7,107.5,252.4,70.5,246z"/>
<path fill="#261C1A" d="M379.4,126.3c-3-6.8-6.9-13.9-11.4-21C356,123.7,347.2,140.9,379.4,126.3z"/>
<path fill="#261C1A" d="M393,169.5c-1.8-9.2-4.3-17.6-7.4-25.4C367.7,161,349.9,179.5,393,169.5z"/>
<path fill="#261C1A" d="M403.2,213.5c-2.3-8.2-4.5-16.6-6.4-25.2C379.4,204.9,362.9,222.5,403.2,213.5z"/>
<path fill="#261C1A" d="M260.9,80.5c0.5-1.6,1.4-5.9,2.4-11.7c-5.9,0.1-11.9,0.5-17.9,1.2c0.2,3,0.4,5.4,0.8,7.2
	C248.9,89.9,251.4,112.2,260.9,80.5z"/>
<path fill="#261C1A" d="M232.6,86.4c0-1.8-0.6-7.2-1.8-14.3c-6.9,1.3-13.8,3.1-20.6,5.2c1.9,4.4,3.7,7.9,5.2,10
	C222.5,97.3,232.7,115.2,232.6,86.4z"/>
<path fill="#261C1A" d="M198.5,161.3c-13.4-1.1-16.2,4.9-0.6,7.2S216.4,162.8,198.5,161.3z"/>
<path fill="#261C1A" d="M280,157.9c-12.7,1.5-13.9,9.2,1,8.7C295.9,166,296.9,155.9,280,157.9z"/>
<path fill="#261C1A" d="M83.4,201.5C83.4,201.5,83.3,201.5,83.4,201.5c-2.2,6.9-4.3,13.7-6.3,20.6c0,0,0,0,0,0
	C96.2,218.8,110.2,213.8,83.4,201.5z"/>
<path fill="#261C1A" d="M90.3,181.7C90.3,181.7,90.3,181.7,90.3,181.7c26.2-3.8,60.8-8.1,13.3-26.7c-0.7-0.3-1.7-0.6-3-1
	c0,0,0,0,0,0c-2.6,7.1-5,14.2-7.5,21.3C92.1,177.4,91.2,179.5,90.3,181.7z"/>
</svg>
